<svg width="28" height="27" fill="none" xmlns="http://www.w3.org/2000/svg"><path d="M7.183 8.465h13.08a2.35 2.35 0 0 1 2.275 1.761l3.215 12.422a2.35 2.35 0 0 1-2.275 2.94H3.897a2.35 2.35 0 0 1-2.272-2.952l3.286-12.422a2.35 2.35 0 0 1 2.272-1.749Z" stroke="#fff" stroke-width="1.3"/><path d="M5.582 8.374c0-1.1.21-2.189.616-3.205a8.399 8.399 0 0 1 1.755-2.716A8.082 8.082 0 0 1 10.58.637 7.861 7.861 0 0 1 13.677 0c1.063 0 2.115.217 3.097.637A8.082 8.082 0 0 1 19.4 2.453a8.398 8.398 0 0 1 1.755 2.716 8.625 8.625 0 0 1 .616 3.205h-2.4c0-.774-.148-1.54-.434-2.254a5.907 5.907 0 0 0-1.234-1.911 5.684 5.684 0 0 0-1.847-1.277 5.53 5.53 0 0 0-4.358 0c-.69.296-1.318.73-1.847 1.277a5.907 5.907 0 0 0-1.234 1.91 6.067 6.067 0 0 0-.434 2.255h-2.4Z" fill="#fff"/></svg>