<svg width="28" height="27" viewBox="0 0 28 27" fill="none" xmlns="http://www.w3.org/2000/svg">
<path d="M7.18294 8.46537H20.2629C21.3339 8.46537 22.2695 9.18959 22.5379 10.2265L25.7533 22.6484C26.1385 24.1363 25.0152 25.5873 23.4783 25.5873H3.89683C2.35473 25.5873 1.23059 24.1271 1.62498 22.6363L4.91109 10.2144C5.18382 9.18343 6.11654 8.46537 7.18294 8.46537Z" stroke="white" stroke-width="1.3"/>
<path d="M5.58228 8.37359C5.58228 7.27395 5.79165 6.18508 6.19843 5.16915C6.60522 4.15322 7.20145 3.23012 7.95309 2.45256C8.70474 1.675 9.59707 1.0582 10.5791 0.63739C11.5612 0.216577 12.6138 -1.25989e-05 13.6768 -1.26438e-05C14.7397 -1.26887e-05 15.7923 0.216577 16.7744 0.63739C17.7564 1.0582 18.6488 1.675 19.4004 2.45256C20.1521 3.23012 20.7483 4.15322 21.1551 5.16915C21.5619 6.18508 21.7712 7.27395 21.7712 8.37359L19.3702 8.37359C19.3702 7.60013 19.223 6.83425 18.9368 6.11966C18.6507 5.40508 18.2313 4.75579 17.7026 4.20888C17.174 3.66196 16.5463 3.22812 15.8556 2.93213C15.1648 2.63614 14.4244 2.48379 13.6768 2.48379C12.9291 2.48379 12.1887 2.63614 11.498 2.93213C10.8072 3.22812 10.1796 3.66196 9.65087 4.20888C9.12218 4.75579 8.7028 5.40508 8.41668 6.11966C8.13056 6.83425 7.98329 7.60013 7.98329 8.37359L5.58228 8.37359Z" fill="white"/>
</svg>
